<svg width="66" height="46" viewBox="0 0 66 46" fill="none" xmlns="http://www.w3.org/2000/svg">
<rect width="66" height="45.8452" rx="3.5" fill="white"/>
<path fill-rule="evenodd" clip-rule="evenodd" d="M41.7436 28.0636L50.194 35.3709C50.5019 35.6371 50.5019 36.0676 50.194 36.3339L49.5455 36.8947C49.2376 37.1609 48.7397 37.1609 48.4319 36.8947L39.9815 29.5874C39.8374 29.4571 39.7522 29.2871 39.7522 29.1059V28.5281C37.3219 30.4654 34.0794 31.6549 30.5093 31.6549C22.9826 31.6549 16.8839 26.3812 16.8839 19.8726C16.8839 13.364 22.9826 8.09027 30.5093 8.09027C38.036 8.09027 44.1346 13.364 44.1346 19.8726C44.1346 22.9598 42.759 25.7638 40.5121 27.8653H41.1868C41.3965 27.8653 41.593 27.9333 41.7436 28.0636ZM18.9799 19.8725C18.9799 25.3842 24.1352 29.8422 30.509 29.8422C36.8828 29.8422 42.0382 25.3842 42.0382 19.8725C42.0382 14.3609 36.8828 9.90288 30.509 9.90288C24.1352 9.90288 18.9799 14.3609 18.9799 19.8725Z" fill="#F5A6BB"/>
</svg>
