<svg width="28" height="28" viewBox="0 0 28 28" fill="none" xmlns="http://www.w3.org/2000/svg">
<path fill-rule="evenodd" clip-rule="evenodd" d="M24.6 0.666992H3.3124C1.7092 0.666992 0.409546 1.96665 0.409546 3.56985V24.8575C0.409546 26.4607 1.7092 27.7603 3.3124 27.7603H24.6C26.2032 27.7603 27.5029 26.4607 27.5029 24.8575V3.56985C27.5029 1.96665 26.2032 0.666992 24.6 0.666992ZM19.6591 6.66925C20.5003 7.0012 21.1663 7.66711 21.4982 8.50834L21.5006 8.50894C21.9339 9.60227 21.9099 11.9828 21.8944 13.526C21.8918 13.7814 21.8895 14.0138 21.8895 14.2137C21.8895 14.4134 21.8918 14.6456 21.8944 14.9008V14.901V14.9011V14.9012V14.9014V14.9014C21.9099 16.4455 21.9339 18.8287 21.5006 19.9184C21.1687 20.7596 20.5028 21.4255 19.6615 21.7575C18.5693 22.191 16.193 22.1669 14.6492 22.1513H14.6491H14.6491H14.649H14.649H14.649C14.3927 22.1487 14.1593 22.1463 13.9586 22.1463C13.7617 22.1463 13.5334 22.1485 13.2827 22.1509L13.2823 22.1509C11.7381 22.1658 9.34765 22.1887 8.25512 21.7575C7.4139 21.4255 6.74798 20.7596 6.41604 19.9184C5.98276 18.8211 6.00555 16.4269 6.02023 14.8841C6.0226 14.6353 6.02476 14.4086 6.02476 14.2131C6.02476 14.0169 6.02259 13.7894 6.02021 13.5396V13.5396C6.00548 11.996 5.98263 9.60142 6.41362 8.50834C6.74556 7.66711 7.41148 7.0012 8.2527 6.66925C9.34499 6.23566 11.7223 6.25977 13.266 6.27543C13.5223 6.27803 13.7556 6.28039 13.9562 6.28039C14.153 6.28039 14.3814 6.2782 14.632 6.27578H14.6321H14.6321H14.6322H14.6323C16.1761 6.26094 18.5666 6.23796 19.6591 6.66925ZM10.7316 14.2145C10.7312 12.4331 12.1748 10.9885 13.9562 10.9879C15.7377 10.9885 17.1819 12.4322 17.1832 14.2137C17.1832 15.9951 15.7392 17.4392 13.9578 17.4395C12.1764 17.4397 10.7321 15.9959 10.7316 14.2145ZM13.9562 19.1727C11.2174 19.1727 8.99716 16.9525 8.99716 14.2137C8.99716 11.4749 11.2174 9.25461 13.9562 9.25461C16.695 9.25461 18.9153 11.4749 18.9153 14.2137C18.9169 15.5294 18.3949 16.7917 17.4646 17.722C16.5342 18.6524 15.2719 19.1743 13.9562 19.1727ZM18.0498 9.48995C18.2292 9.92247 18.6514 10.2043 19.1197 10.2041L19.1221 10.2065C19.4292 10.2063 19.7236 10.0839 19.9402 9.86626C20.1568 9.64861 20.2779 9.35366 20.2766 9.04657C20.2766 8.57835 19.9945 8.15624 19.5619 7.97711C19.1293 7.79799 18.6314 7.89713 18.3004 8.2283C17.9694 8.55947 17.8705 9.05744 18.0498 9.48995ZM22.0014 22.257C23.1329 21.1285 23.4867 19.7551 23.5647 18.2051C23.6548 16.6061 23.6548 11.8212 23.5647 10.2295C23.4909 8.67948 23.1304 7.30546 22.0014 6.17456C20.8723 5.04365 19.4995 4.68926 17.9495 4.61125C16.3523 4.52114 11.5638 4.52114 9.9666 4.61125C8.42264 4.68503 7.05044 5.04184 5.91469 6.17033C4.77895 7.29881 4.4294 8.67223 4.35138 10.2222C4.26127 11.8182 4.26127 16.6073 4.35138 18.2051C4.42516 19.7521 4.78137 21.1261 5.91469 22.257C7.04802 23.3879 8.41659 23.7423 9.9666 23.8203C11.5638 23.9104 16.3523 23.9104 17.9495 23.8203C19.4976 23.7465 20.8699 23.3855 22.0014 22.257Z" fill="white"/>
</svg>
