<svg width="28" height="28" viewBox="0 0 28 28" fill="none" xmlns="http://www.w3.org/2000/svg">
<path fill-rule="evenodd" clip-rule="evenodd" d="M3.25527 0.666992H24.5429C26.1455 0.666992 27.4457 1.96723 27.4457 3.56985V24.8575C27.4457 26.4601 26.1455 27.7603 24.5429 27.7603H3.25527C1.65266 27.7603 0.352417 26.4601 0.352417 24.8575V3.56985C0.352417 1.96723 1.65266 0.666992 3.25527 0.666992ZM21.5977 10.7847C21.5977 10.6153 21.5977 10.4399 21.5856 10.2706C22.3597 9.70818 23.037 9.00666 23.5753 8.21442C22.8617 8.52285 22.0876 8.74661 21.2893 8.83128C22.1117 8.34142 22.7347 7.56733 23.031 6.64809C22.269 7.10166 21.4102 7.43428 20.5152 7.60361C19.7895 6.82952 18.7614 6.35175 17.6184 6.35175C15.1993 6.35175 13.1855 8.53495 13.7479 11.2261C10.458 11.0568 7.52489 9.48442 5.57151 7.07747C5.2268 7.66409 5.03327 8.34142 5.03327 9.07923C5.0311 10.4063 5.69419 11.6462 6.79918 12.3812C6.15208 12.357 5.53523 12.1756 5.00908 11.8793V11.9277C5.00908 13.8568 6.3698 15.4534 8.18408 15.8223C7.55513 15.9856 7.0048 15.9856 6.39399 15.8949C6.89594 17.4673 8.35946 18.6103 10.1012 18.6466C8.74047 19.7109 7.03504 20.3399 5.17842 20.3399C4.85185 20.3399 4.54342 20.3278 4.22289 20.2915C5.9767 21.4164 8.06313 22.0695 10.3128 22.0695C17.6063 22.0695 21.5977 16.0279 21.5977 10.7847Z" fill="white"/>
</svg>
