<svg width="124" height="110" viewBox="0 0 124 110" fill="none" xmlns="http://www.w3.org/2000/svg">
<g clip-path="url(#clip0_404_212)">
<path d="M63.69 47.9467L95.7295 59.409V106.168C95.7295 107.076 95.3693 107.947 94.7281 108.589C94.087 109.232 93.2173 109.592 92.3106 109.592H78.635C77.7282 109.592 76.8586 109.232 76.2174 108.589C75.5762 107.947 75.216 107.076 75.216 106.168V82.1944H41.0269V106.168C41.0269 107.076 40.6667 107.947 40.0256 108.589C39.3844 109.232 38.5148 109.592 37.608 109.592H23.9324C23.0256 109.592 22.156 109.232 21.5148 108.589C20.8737 107.947 20.5135 107.076 20.5135 106.168V60.3807C12.5731 57.5446 6.83783 50.0144 6.83783 41.0972C6.83783 39.2806 7.55824 37.5384 8.84058 36.2538C10.1229 34.9693 11.8621 34.2476 13.6757 34.2476C15.4892 34.2476 17.2284 34.9693 18.5107 36.2538C19.7931 37.5384 20.5135 39.2806 20.5135 41.0972C20.5169 42.9127 21.2384 44.653 22.52 45.9368C23.8016 47.2206 25.5388 47.9433 27.3513 47.9467H63.69ZM116.243 23.9733V30.8229C116.243 34.4561 114.802 37.9405 112.237 40.5096C109.673 43.0786 106.194 44.5219 102.567 44.5219H95.7295V52.1378L68.3782 42.3536V10.2743C68.3782 7.22409 72.0578 5.69578 74.2139 7.85339L80.0431 13.699H91.5029C93.8342 13.699 96.5778 15.3943 97.6185 17.4855L99.1484 20.5486H112.824C113.731 20.5486 114.6 20.9094 115.242 21.5517C115.883 22.1939 116.243 23.065 116.243 23.9733ZM92.3106 23.9733C92.3106 23.296 92.1101 22.6338 91.7344 22.0706C91.3587 21.5074 90.8248 21.0685 90.2 20.8093C89.5753 20.55 88.8879 20.4822 88.2247 20.6144C87.5615 20.7465 86.9523 21.0727 86.4742 21.5517C85.996 22.0306 85.6704 22.6409 85.5385 23.3052C85.4065 23.9695 85.4743 24.6581 85.733 25.2839C85.9918 25.9097 86.43 26.4446 86.9922 26.8209C87.5545 27.1972 88.2155 27.3981 88.8917 27.3981C89.7984 27.3981 90.6681 27.0373 91.3092 26.395C91.9504 25.7527 92.3106 24.8816 92.3106 23.9733Z" fill="#F5A6BB"/>
</g>
<defs>
<clipPath id="clip0_404_212">
<rect width="123.081" height="109.592" fill="white"/>
</clipPath>
</defs>
</svg>
